<mxfile host="65bd71144e">
    <diagram id="6ClRn_U-NJwl4ny766Rq" name="Page-1">
        <mxGraphModel dx="1300" dy="932" grid="1" gridSize="10" guides="1" tooltips="1" connect="1" arrows="1" fold="1" page="0" pageScale="1" pageWidth="850" pageHeight="1100" background="#333333" math="0" shadow="0">
            <root>
                <mxCell id="0"/>
                <mxCell id="1" parent="0"/>
                <mxCell id="3" style="html=1;fontFamily=Verdana;fontSize=15;fontColor=#FFFFFF;strokeColor=#2D7600;edgeStyle=elbowEdgeStyle;fillColor=#60a917;elbow=vertical;strokeWidth=4;rounded=1;endArrow=none;endFill=0;" edge="1" parent="1" source="2" target="4">
                    <mxGeometry relative="1" as="geometry">
                        <mxPoint x="240" y="190" as="targetPoint"/>
                    </mxGeometry>
                </mxCell>
                <mxCell id="2" value="&lt;font color=&quot;#ffffff&quot; style=&quot;font-size: 15px;&quot;&gt;Landing Page&lt;/font&gt;" style="rounded=1;whiteSpace=wrap;html=1;labelBackgroundColor=none;labelBorderColor=none;fillColor=#60a917;fontColor=#ffffff;strokeColor=#2D7600;fontFamily=Verdana;fontSize=15;" vertex="1" parent="1">
                    <mxGeometry x="340" y="90" width="120" height="60" as="geometry"/>
                </mxCell>
                <mxCell id="24" style="edgeStyle=elbowEdgeStyle;elbow=vertical;html=1;strokeColor=#2D7600;fontFamily=Verdana;fontSize=15;fontColor=#FFFFFF;fillColor=#60a917;endArrow=none;strokeWidth=4;endFill=0;" edge="1" parent="1" source="4" target="22">
                    <mxGeometry relative="1" as="geometry"/>
                </mxCell>
                <mxCell id="4" value="Zona Usuarios" style="rounded=1;whiteSpace=wrap;html=1;labelBackgroundColor=none;labelBorderColor=none;fillColor=#60a917;fontColor=#ffffff;strokeColor=#2D7600;fontFamily=Verdana;fontSize=15;" vertex="1" parent="1">
                    <mxGeometry x="240" y="200" width="120" height="60" as="geometry"/>
                </mxCell>
                <mxCell id="5" value="Zona Vendedores" style="rounded=1;whiteSpace=wrap;html=1;labelBackgroundColor=none;labelBorderColor=none;fillColor=#60a917;fontColor=#ffffff;strokeColor=#2D7600;fontFamily=Verdana;fontSize=15;" vertex="1" parent="1">
                    <mxGeometry x="450" y="200" width="120" height="60" as="geometry"/>
                </mxCell>
                <mxCell id="7" style="html=1;fontFamily=Verdana;fontSize=15;fontColor=#FFFFFF;strokeColor=#2D7600;edgeStyle=elbowEdgeStyle;fillColor=#60a917;elbow=vertical;endArrow=none;strokeWidth=4;endFill=0;" edge="1" parent="1" source="2" target="5">
                    <mxGeometry relative="1" as="geometry">
                        <mxPoint x="325" y="380" as="targetPoint"/>
                        <mxPoint x="425" y="330" as="sourcePoint"/>
                    </mxGeometry>
                </mxCell>
                <mxCell id="8" value="Registro" style="rounded=1;whiteSpace=wrap;html=1;labelBackgroundColor=none;labelBorderColor=none;fillColor=#60a917;fontColor=#ffffff;strokeColor=#2D7600;fontFamily=Verdana;fontSize=15;" vertex="1" parent="1">
                    <mxGeometry x="340" y="320" width="120" height="60" as="geometry"/>
                </mxCell>
                <mxCell id="9" style="html=1;fontFamily=Verdana;fontSize=15;fontColor=#FFFFFF;strokeColor=#2D7600;edgeStyle=elbowEdgeStyle;fillColor=#60a917;elbow=vertical;endArrow=none;strokeWidth=4;endFill=0;" edge="1" parent="1" source="5" target="8">
                    <mxGeometry relative="1" as="geometry">
                        <mxPoint x="700" y="430" as="targetPoint"/>
                        <mxPoint x="590" y="380" as="sourcePoint"/>
                    </mxGeometry>
                </mxCell>
                <mxCell id="10" style="html=1;fontFamily=Verdana;fontSize=15;fontColor=#FFFFFF;strokeColor=#2D7600;edgeStyle=elbowEdgeStyle;fillColor=#60a917;elbow=vertical;endArrow=none;strokeWidth=4;endFill=0;" edge="1" parent="1" source="4" target="8">
                    <mxGeometry relative="1" as="geometry">
                        <mxPoint x="260" y="340" as="targetPoint"/>
                        <mxPoint x="150" y="290" as="sourcePoint"/>
                    </mxGeometry>
                </mxCell>
                <mxCell id="21" style="edgeStyle=elbowEdgeStyle;elbow=vertical;html=1;strokeColor=#006EAF;fontFamily=Verdana;fontSize=15;fontColor=#FFFFFF;fillColor=#1ba1e2;endArrow=none;endFill=0;strokeWidth=4;" edge="1" parent="1" source="11" target="20">
                    <mxGeometry relative="1" as="geometry"/>
                </mxCell>
                <mxCell id="11" value="Dashboard Vendedor" style="rounded=1;whiteSpace=wrap;html=1;labelBackgroundColor=none;labelBorderColor=none;fillColor=#1ba1e2;fontColor=#ffffff;strokeColor=#006EAF;fontFamily=Verdana;fontSize=15;" vertex="1" parent="1">
                    <mxGeometry x="560" y="420" width="120" height="60" as="geometry"/>
                </mxCell>
                <mxCell id="12" style="html=1;fontFamily=Verdana;fontSize=15;fontColor=#FFFFFF;strokeColor=#2D7600;edgeStyle=elbowEdgeStyle;fillColor=#60a917;elbow=vertical;endArrow=none;strokeWidth=4;endFill=0;" edge="1" parent="1" source="5" target="11">
                    <mxGeometry relative="1" as="geometry">
                        <mxPoint x="490" y="370" as="targetPoint"/>
                        <mxPoint x="600" y="310" as="sourcePoint"/>
                    </mxGeometry>
                </mxCell>
                <mxCell id="17" style="edgeStyle=elbowEdgeStyle;elbow=vertical;html=1;strokeColor=#006EAF;fontFamily=Verdana;fontSize=15;fontColor=#FFFFFF;fillColor=#1ba1e2;endArrow=none;endFill=0;strokeWidth=4;" edge="1" parent="1" source="13" target="15">
                    <mxGeometry relative="1" as="geometry"/>
                </mxCell>
                <mxCell id="19" style="edgeStyle=elbowEdgeStyle;elbow=vertical;html=1;strokeColor=#006EAF;fontFamily=Verdana;fontSize=15;fontColor=#FFFFFF;fillColor=#1ba1e2;endArrow=none;endFill=0;strokeWidth=4;" edge="1" parent="1" source="13" target="18">
                    <mxGeometry relative="1" as="geometry"/>
                </mxCell>
                <mxCell id="13" value="Listado Productos" style="rounded=1;whiteSpace=wrap;html=1;labelBackgroundColor=none;labelBorderColor=none;fillColor=#1ba1e2;fontColor=#ffffff;strokeColor=#006EAF;fontFamily=Verdana;fontSize=15;" vertex="1" parent="1">
                    <mxGeometry x="840" y="560" width="120" height="60" as="geometry"/>
                </mxCell>
                <mxCell id="14" style="html=1;fontFamily=Verdana;fontSize=15;fontColor=#FFFFFF;strokeColor=#006EAF;edgeStyle=elbowEdgeStyle;fillColor=#1ba1e2;elbow=vertical;endArrow=none;endFill=0;strokeWidth=4;" edge="1" parent="1" source="11" target="13">
                    <mxGeometry relative="1" as="geometry">
                        <mxPoint x="610" y="770" as="targetPoint"/>
                        <mxPoint x="500" y="610" as="sourcePoint"/>
                    </mxGeometry>
                </mxCell>
                <mxCell id="15" value="Agregar Producto" style="rounded=1;whiteSpace=wrap;html=1;labelBackgroundColor=none;labelBorderColor=none;fillColor=#1ba1e2;fontColor=#ffffff;strokeColor=#006EAF;fontFamily=Verdana;fontSize=15;" vertex="1" parent="1">
                    <mxGeometry x="680" y="710" width="120" height="60" as="geometry"/>
                </mxCell>
                <mxCell id="18" value="Editar Producto" style="rounded=1;whiteSpace=wrap;html=1;labelBackgroundColor=none;labelBorderColor=none;fillColor=#1ba1e2;fontColor=#ffffff;strokeColor=#006EAF;fontFamily=Verdana;fontSize=15;" vertex="1" parent="1">
                    <mxGeometry x="1000" y="710" width="120" height="60" as="geometry"/>
                </mxCell>
                <mxCell id="20" value="Opciones Negocio" style="rounded=1;whiteSpace=wrap;html=1;labelBackgroundColor=none;labelBorderColor=none;fillColor=#1ba1e2;fontColor=#ffffff;strokeColor=#006EAF;fontFamily=Verdana;fontSize=15;" vertex="1" parent="1">
                    <mxGeometry x="470" y="560" width="120" height="60" as="geometry"/>
                </mxCell>
                <mxCell id="26" style="edgeStyle=elbowEdgeStyle;elbow=vertical;html=1;strokeColor=#6F0000;fontFamily=Verdana;fontSize=15;fontColor=#FFFFFF;fillColor=#a20025;strokeWidth=4;endArrow=none;endFill=0;" edge="1" parent="1" source="22" target="25">
                    <mxGeometry relative="1" as="geometry"/>
                </mxCell>
                <mxCell id="22" value="Dashboard Cliente / Busqueda 1" style="rounded=1;whiteSpace=wrap;html=1;labelBackgroundColor=none;labelBorderColor=none;fillColor=#a20025;fontColor=#ffffff;strokeColor=#6F0000;fontFamily=Verdana;fontSize=15;" vertex="1" parent="1">
                    <mxGeometry x="120" y="420" width="120" height="60" as="geometry"/>
                </mxCell>
                <mxCell id="28" style="edgeStyle=elbowEdgeStyle;elbow=vertical;html=1;strokeColor=#6F0000;fontFamily=Verdana;fontSize=15;fontColor=#FFFFFF;fillColor=#a20025;strokeWidth=4;endArrow=none;endFill=0;" edge="1" parent="1" source="25" target="27">
                    <mxGeometry relative="1" as="geometry"/>
                </mxCell>
                <mxCell id="25" value="Busqueda 2" style="rounded=1;whiteSpace=wrap;html=1;labelBackgroundColor=none;labelBorderColor=none;fillColor=#a20025;fontColor=#ffffff;strokeColor=#6F0000;fontFamily=Verdana;fontSize=15;" vertex="1" parent="1">
                    <mxGeometry x="120" y="560" width="120" height="60" as="geometry"/>
                </mxCell>
                <mxCell id="27" value="Detalles Tienda" style="rounded=1;whiteSpace=wrap;html=1;labelBackgroundColor=none;labelBorderColor=none;fillColor=#a20025;fontColor=#ffffff;strokeColor=#6F0000;fontFamily=Verdana;fontSize=15;" vertex="1" parent="1">
                    <mxGeometry x="120" y="710" width="120" height="60" as="geometry"/>
                </mxCell>
                <mxCell id="29" value="&lt;font color=&quot;#abffb9&quot;&gt;Vista Publica&lt;/font&gt;" style="text;strokeColor=none;align=left;fillColor=none;html=1;verticalAlign=middle;whiteSpace=wrap;rounded=0;labelBackgroundColor=none;labelBorderColor=none;fontFamily=Verdana;fontSize=15;fontColor=#FFFFFF;" vertex="1" parent="1">
                    <mxGeometry x="880" y="80" width="100" height="30" as="geometry"/>
                </mxCell>
                <mxCell id="31" value="" style="whiteSpace=wrap;html=1;labelBackgroundColor=none;labelBorderColor=none;fontFamily=Verdana;fontSize=15;fontColor=#ffffff;fillColor=#60a917;strokeColor=#2D7600;rounded=1;shadow=0;glass=0;sketch=1;curveFitting=1;jiggle=2;" vertex="1" parent="1">
                    <mxGeometry x="790" y="72.5" width="80" height="45" as="geometry"/>
                </mxCell>
                <mxCell id="32" value="" style="whiteSpace=wrap;html=1;labelBackgroundColor=none;labelBorderColor=none;fontFamily=Verdana;fontSize=15;fontColor=#ffffff;fillColor=#1ba1e2;strokeColor=#006EAF;rounded=1;shadow=0;glass=0;sketch=1;curveFitting=1;jiggle=2;" vertex="1" parent="1">
                    <mxGeometry x="790" y="140" width="80" height="45" as="geometry"/>
                </mxCell>
                <mxCell id="33" value="&lt;font&gt;Vista Privada (Vendedor)&lt;/font&gt;" style="text;strokeColor=none;align=left;fillColor=none;html=1;verticalAlign=middle;whiteSpace=wrap;rounded=0;labelBackgroundColor=none;labelBorderColor=none;fontFamily=Verdana;fontSize=15;fontColor=#99FFFF;" vertex="1" parent="1">
                    <mxGeometry x="880" y="147.5" width="200" height="30" as="geometry"/>
                </mxCell>
                <mxCell id="34" value="" style="whiteSpace=wrap;html=1;labelBackgroundColor=none;labelBorderColor=none;fontFamily=Verdana;fontSize=15;fontColor=#ffffff;fillColor=#a20025;strokeColor=#6F0000;rounded=1;shadow=0;glass=0;sketch=1;curveFitting=1;jiggle=2;" vertex="1" parent="1">
                    <mxGeometry x="790" y="207.5" width="80" height="45" as="geometry"/>
                </mxCell>
                <mxCell id="35" value="&lt;font&gt;Vista Privada (Cliente)&lt;/font&gt;" style="text;strokeColor=none;align=left;fillColor=none;html=1;verticalAlign=middle;whiteSpace=wrap;rounded=0;labelBackgroundColor=none;labelBorderColor=none;fontFamily=Verdana;fontSize=15;fontColor=#FF9999;" vertex="1" parent="1">
                    <mxGeometry x="880" y="215" width="200" height="30" as="geometry"/>
                </mxCell>
                <mxCell id="36" value="Bg-Box" parent="0"/>
                <mxCell id="38" value="" style="rounded=0;whiteSpace=wrap;html=1;sketch=1;fillColor=none;strokeColor=none;" vertex="1" parent="36">
                    <mxGeometry x="40" width="1200" height="880" as="geometry"/>
                </mxCell>
            </root>
        </mxGraphModel>
    </diagram>
</mxfile>